<mxfile host="app.diagrams.net">
<diagram name="Ablaufdiagramm">
<mxGraphModel dx="0" dy="0" grid="1" gridSize="10" guides="1">
<root>
<mxCell id="0"/>
<mxCell id="1" parent="0"/>
<mxCell id="Start" value="Start" style="shape=ellipse;whiteSpace=wrap;html=1;" vertex="1" parent="1">
<mxGeometry x="20" y="20" width="120" height="50" as="geometry"/>
</mxCell>
<mxCell id="CheckTime" value="Zeitlimit pr端fen (120 Sekunden)" style="shape=rectangle;whiteSpace=wrap;html=1;" vertex="1" parent="1">
<mxGeometry x="200" y="20" width="160" height="80" as="geometry"/>
</mxCell>
<mxCell id="TimeExceeded" value="Zeitlimit erreicht?" style="shape=rhombus;whiteSpace=wrap;html=1;" vertex="1" parent="1">
<mxGeometry x="400" y="20" width="160" height="80" as="geometry"/>
</mxCell>
<mxCell id="CheckESC" value="ESC-Taste pr端fen" style="shape=rectangle;whiteSpace=wrap;html=1;" vertex="1" parent="1">
<mxGeometry x="200" y="120" width="160" height="80" as="geometry"/>
</mxCell>
<mxCell id="ESCPressed" value="ESC-Taste gedr端ckt?" style="shape=rhombus;whiteSpace=wrap;html=1;" vertex="1" parent="1">
<mxGeometry x="400" y="120" width="160" height="80" as="geometry"/>
</mxCell>
<mxCell id="ReadIR" value="Infrarotwert lesen" style="shape=rectangle;whiteSpace=wrap;html=1;" vertex="1" parent="1">
<mxGeometry x="200" y="220" width="160" height="80" as="geometry"/>
</mxCell>
<mxCell id="IRStop" value="ir_value == [1,1,1,1,1]?" style="shape=rhombus;whiteSpace=wrap;html=1;" vertex="1" parent="1">
<mxGeometry x="400" y="220" width="160" height="80" as="geometry"/>
</mxCell>
<mxCell id="LineNotDetected" value="Linie erkannt?" style="shape=rhombus;whiteSpace=wrap;html=1;" vertex="1" parent="1">
<mxGeometry x="600" y="220" width="160" height="80" as="geometry"/>
</mxCell>
<mxCell id="StopCar" value="Fahrzeug stoppen" style="shape=rectangle;whiteSpace=wrap;html=1;" vertex="1" parent="1">
<mxGeometry x="600" y="320" width="160" height="80" as="geometry"/>
</mxCell>
<mxCell id="Reverse" value="Linie nicht erkannt: Umkehrfahrt angle invertieren" style="shape=rectangle;whiteSpace=wrap;html=1;" vertex="1" parent="1">
<mxGeometry x="800" y="320" width="160" height="80" as="geometry"/>
</mxCell>
<mxCell id="LogData" value="Daten loggen" style="shape=rectangle;whiteSpace=wrap;html=1;" vertex="1" parent="1">
<mxGeometry x="1000" y="320" width="160" height="80" as="geometry"/>
</mxCell>
<mxCell id="Restore" value="Terminal zur端cksetzen Auto stoppen" style="shape=rectangle;whiteSpace=wrap;html=1;" vertex="1" parent="1">
<mxGeometry x="1200" y="320" width="160" height="80" as="geometry"/>
</mxCell>
<mxCell id="End" value="Ende" style="shape=ellipse;whiteSpace=wrap;html=1;" vertex="1" parent="1">
<mxGeometry x="1400" y="320" width="120" height="50" as="geometry"/>
</mxCell>
<mxCell id="14" edge="1" source="Start" target="CheckTime" parent="1">
<mxGeometry relative="1" as="geometry"/>
</mxCell>
<mxCell id="15" edge="1" source="CheckTime" target="TimeExceeded" parent="1">
<mxGeometry relative="1" as="geometry"/>
</mxCell>
<mxCell id="16" edge="1" source="TimeExceeded" target="End" parent="1">
<mxGeometry relative="1" as="geometry"/>
</mxCell>
<mxCell id="17" edge="1" source="TimeExceeded" target="CheckESC" parent="1">
<mxGeometry relative="1" as="geometry"/>
</mxCell>
<mxCell id="18" edge="1" source="CheckESC" target="ESCPressed" parent="1">
<mxGeometry relative="1" as="geometry"/>
</mxCell>
<mxCell id="19" edge="1" source="ESCPressed" target="End" parent="1">
<mxGeometry relative="1" as="geometry"/>
</mxCell>
<mxCell id="20" edge="1" source="ESCPressed" target="ReadIR" parent="1">
<mxGeometry relative="1" as="geometry"/>
</mxCell>
<mxCell id="21" edge="1" source="ReadIR" target="IRStop" parent="1">
<mxGeometry relative="1" as="geometry"/>
</mxCell>
<mxCell id="22" edge="1" source="IRStop" target="StopCar" parent="1">
<mxGeometry relative="1" as="geometry"/>
</mxCell>
<mxCell id="23" edge="1" source="IRStop" target="LineNotDetected" parent="1">
<mxGeometry relative="1" as="geometry"/>
</mxCell>
<mxCell id="24" edge="1" source="LineNotDetected" target="Reverse" parent="1">
<mxGeometry relative="1" as="geometry"/>
</mxCell>
<mxCell id="25" edge="1" source="Reverse" target="LogData" parent="1">
<mxGeometry relative="1" as="geometry"/>
</mxCell>
<mxCell id="26" edge="1" source="LogData" target="CheckTime" parent="1">
<mxGeometry relative="1" as="geometry"/>
</mxCell>
<mxCell id="27" edge="1" source="StopCar" target="End" parent="1">
<mxGeometry relative="1" as="geometry"/>
</mxCell>
<mxCell id="28" edge="1" source="CheckTime" target="Restore" parent="1">
<mxGeometry relative="1" as="geometry"/>
</mxCell>
<mxCell id="29" edge="1" source="Restore" target="End" parent="1">
<mxGeometry relative="1" as="geometry"/>
</mxCell>
</root>
</mxGraphModel>
</diagram>
</mxfile>
